<svg id="Component_2_1" data-name="Component 2 – 1" xmlns="http://www.w3.org/2000/svg" xmlns:xlink="http://www.w3.org/1999/xlink" width="144.334" height="137.071" viewBox="0 0 144.334 137.071">
  <defs>
    <linearGradient id="linear-gradient" x1="0.377" y1="0.5" x2="0.829" y2="0.5" gradientUnits="objectBoundingBox">
      <stop offset="0" stop-color="#630d7d"/>
      <stop offset="1" stop-color="#32073f"/>
    </linearGradient>
    <linearGradient id="linear-gradient-2" x1="0.5" y1="0.618" x2="0.532" y2="2.572" gradientUnits="objectBoundingBox">
      <stop offset="0" stop-color="#630d7d"/>
      <stop offset="0.762" stop-color="#3e084e"/>
      <stop offset="0.849" stop-color="#36233b"/>
      <stop offset="1" stop-color="#32073f"/>
    </linearGradient>
  </defs>
  <g id="Group_1" data-name="Group 1" transform="translate(-159.666 -172)">
    <g id="Ellipse_1" data-name="Ellipse 1" transform="translate(213 172)" stroke="#630d7d" stroke-width="1" fill="url(#linear-gradient)">
      <ellipse cx="45.5" cy="48" rx="45.5" ry="48" stroke="none"/>
      <ellipse cx="45.5" cy="48" rx="45" ry="47.5" fill="none"/>
    </g>
    <path id="Path_1" data-name="Path 1" d="M0,0V106" transform="translate(239.5 172.5)" fill="none" stroke="#fff" stroke-width="5"/>
    <line id="Line_3" data-name="Line 3" x1="1" y2="82" transform="translate(231.5 178.5)" fill="none" stroke="#fff" stroke-width="3"/>
    <ellipse id="Ellipse_2" data-name="Ellipse 2" cx="2.5" cy="3" rx="2.5" ry="3" transform="translate(287 216)" fill="#fff"/>
  </g>
  <g id="Group_2" data-name="Group 2" transform="translate(-212.967 -18.601) rotate(-47)">
    <line id="Line_4" data-name="Line 4" x2="2" y2="79" transform="translate(105.5 224.038)" fill="none" stroke="#630d7d" stroke-width="4"/>
    <g id="Ellipse_3" data-name="Ellipse 3" transform="translate(86 211)" stroke="#630d7d" stroke-width="1" fill="url(#linear-gradient-2)">
      <ellipse cx="19.5" cy="19" rx="19.5" ry="19" stroke="none"/>
      <ellipse cx="19.5" cy="19" rx="19" ry="18.5" fill="none"/>
    </g>
    <g id="Ellipse_6" data-name="Ellipse 6" transform="translate(93 287.483)" fill="#630d7d" stroke="#630d7d" stroke-width="1">
      <ellipse cx="15.5" cy="16.5" rx="15.5" ry="16.5" stroke="none"/>
      <ellipse cx="15.5" cy="16.5" rx="15" ry="16" fill="none"/>
    </g>
  </g>
  <line id="Line_5" data-name="Line 5" x1="5" y2="11" transform="translate(79.834 90.5)" fill="none" stroke="#630d7d" stroke-width="5"/>
</svg>
